<svg xmlns="http://www.w3.org/2000/svg" width="70" height="70" fill-rule="evenodd" clip-rule="evenodd" image-rendering="optimizeQuality" shape-rendering="geometricPrecision" text-rendering="geometricPrecision" viewBox="0 0 384 384"><rect width="384" height="384" fill="#0d6efd" rx="37" ry="37"/><path fill="#FFFFFF" d="M240 256l-96 0c-9,0 -17,-7 -17,-16 0,-9 8,-16 17,-16l96 0c9,0 16,7 16,16 0,9 -7,16 -16,16zm-96 -129l47 0c9,0 16,7 16,16 0,9 -7,16 -16,16l-47 0c-9,0 -17,-7 -17,-16 0,-9 8,-16 17,-16zm181 42l-2 -5 -4 -3c-5,-3 -30,1 -37,-5 -4,-5 -5,-13 -7,-23 -2,-21 -4,-22 -7,-29 -12,-25 -44,-44 -66,-46l-59 0c-47,0 -85,38 -85,84l0 42 0 57c0,47 38,85 85,85l97 0c47,0 85,-38 85,-85l1 -56 0 -12 -1 -4z"/></svg>